<svg width="32" height="33" viewBox="0 0 32 33" fill="none" xmlns="http://www.w3.org/2000/svg">
<g clip-path="url(#clip0_71_2584)">
<path d="M26.9296 5.41069C23.9501 2.43113 19.9886 0.790283 15.775 0.790283C11.5614 0.790283 7.59991 2.43113 4.62041 5.41069C1.64085 8.3902 0 12.3517 0 16.5653C0 20.7789 1.64085 24.7404 4.62041 27.7199C7.59991 30.6994 11.5614 32.3403 15.775 32.3403C19.9886 32.3403 23.9501 30.6994 26.9296 27.7199C29.9091 24.7403 31.55 20.7789 31.55 16.5653C31.55 12.3517 29.9092 8.3902 26.9296 5.41069ZM15.775 31.344C7.62598 31.344 0.99629 24.7143 0.99629 16.5653C0.99629 8.41626 7.62598 1.78657 15.775 1.78657C23.924 1.78657 30.5537 8.41626 30.5537 16.5653C30.5537 24.7143 23.924 31.344 15.775 31.344Z" fill="#2B2A28"/>
<path d="M24.7094 6.86852C24.5565 6.75329 24.351 6.73604 24.1809 6.82403L4.91877 16.7872C4.75227 16.8733 4.64819 17.0456 4.64942 17.2331C4.65066 17.4205 4.75708 17.5914 4.92481 17.6753L9.9632 20.1943V25.186C9.9632 25.3167 10.0076 25.4459 10.0975 25.5408C10.197 25.6457 10.3292 25.6983 10.4614 25.6983C10.5447 25.6983 10.628 25.6775 10.7034 25.6356L16.4677 22.4332L20.8796 24.324C20.9734 24.3642 21.0773 24.3809 21.1777 24.3621C21.3845 24.3235 21.5382 24.1651 21.5774 23.9695L22.6936 18.388C22.7552 18.0797 22.5195 17.7922 22.2051 17.7922C21.9676 17.792 21.7632 17.9596 21.7166 18.1925L20.7207 23.1719L16.6355 21.4212C16.494 21.3605 16.3322 21.3688 16.1973 21.4435L10.9595 24.3535V19.8864C10.9595 19.6977 10.8529 19.5253 10.6842 19.4408L6.24652 17.222L23.718 8.18506L22.2018 15.7659C22.1401 16.0742 22.3759 16.3617 22.6903 16.3617C22.9277 16.3617 23.1322 16.1941 23.1788 15.9613L24.8982 7.36408C24.9358 7.17638 24.8624 6.98369 24.7094 6.86852Z" fill="#2B2A28"/>
<path d="M21.4798 10.9428C21.3233 10.7446 21.043 10.6949 20.8278 10.8274L12.1931 16.1411C12.0458 16.2318 11.9561 16.3924 11.9561 16.5654V21.8791C11.956 22.1102 12.1149 22.3108 12.3396 22.3639C12.3779 22.373 12.4163 22.3773 12.4543 22.3773C12.6396 22.3773 12.8139 22.2735 12.8997 22.1019L14.8561 18.189L21.4411 11.6039C21.6198 11.4252 21.6364 11.1411 21.4798 10.9428ZM14.0945 17.5415C14.0567 17.5793 14.0252 17.6231 14.0013 17.671L12.9523 19.7687V16.8437L17.7364 13.8996L14.0945 17.5415Z" fill="#2B2A28"/>
</g>
<defs>
<clipPath id="clip0_71_2584">
<rect width="31.55" height="31.55" fill="white" transform="translate(0 0.790283)"/>
</clipPath>
</defs>
</svg>
