<svg width="35" height="35" viewBox="0 0 35 35" fill="none" xmlns="http://www.w3.org/2000/svg">
<g clip-path="url(#clip0_71_2604)">
<path d="M29.7498 3.67247C29.5379 3.45632 29.1908 3.45269 28.9748 3.66481C28.7586 3.87666 28.7551 4.22365 28.9671 4.4398C31.0212 6.53529 32.1525 9.30569 32.1525 12.2406V17.5022C32.1525 23.6472 27.1531 28.6466 21.008 28.6466H14.5772C14.4319 28.6466 14.2925 28.7044 14.1896 28.8071L9.86368 33.1331V28.2208C9.86368 28.003 9.73462 27.8058 9.53508 27.7186C5.47289 25.9436 2.84816 21.9334 2.84816 17.5022V12.2406C2.84816 6.09554 7.84749 1.09614 13.9926 1.09614H21.0081C23.1982 1.09614 25.3178 1.73093 27.1375 2.93159C27.3902 3.09839 27.7302 3.02859 27.8969 2.77601C28.0635 2.52328 27.994 2.1834 27.7413 2.01667C25.7416 0.697402 23.4134 0 21.008 0H13.9925C7.24313 0 1.75195 5.49117 1.75195 12.2406V17.5022C1.75195 22.2484 4.49371 26.555 8.76747 28.5737V34.4563C8.76747 34.9332 9.36459 35.1822 9.70317 34.8439L14.8042 29.7428H21.0081C27.7575 29.7428 33.2487 24.2516 33.2487 17.5023V12.2406C33.2486 9.01701 32.006 5.97406 29.7498 3.67247Z" fill="#2B2A28"/>
<path d="M26.2901 21.7607L25.7645 18.9133C25.7238 18.6928 25.5528 18.5193 25.333 18.4754L21.1991 17.6486C21.0194 17.6128 20.8337 17.6689 20.704 17.7985L19.0067 19.4959C16.146 18.2189 14.5651 16.6349 13.1727 13.6516L14.8648 11.9595C14.9943 11.8299 15.0506 11.6441 15.0147 11.4644L14.188 7.33046C14.144 7.11055 13.9706 6.93965 13.75 6.89897L10.9027 6.37343C10.8296 6.35976 10.7544 6.36146 10.6818 6.37794C9.93673 6.5472 9.25683 6.92269 8.7157 7.4639C7.7789 8.40076 7.42104 9.76959 7.68108 11.4222C7.79947 12.1745 7.97543 12.954 8.20409 13.739C8.28886 14.0297 8.59354 14.1963 8.88365 14.112C9.17432 14.0273 9.34125 13.7231 9.25662 13.4324C9.04088 12.692 8.87518 11.9583 8.76403 11.2517C8.55785 9.9411 8.80238 8.92747 9.49096 8.23889C9.86017 7.86961 10.3177 7.60615 10.8197 7.47265L13.1861 7.90953L13.8825 11.3918L12.1287 13.1455C11.9681 13.3062 11.9232 13.5491 12.0157 13.7565C13.6101 17.327 15.4805 19.1959 18.9166 20.6519C19.1225 20.739 19.3602 20.6927 19.5181 20.5348L21.2718 18.781L24.754 19.4774L25.1909 21.8438C25.0574 22.3457 24.7939 22.8033 24.4248 23.1725C23.736 23.861 22.7221 24.1056 21.4117 23.8993C18.7917 23.4871 15.1575 22.2151 12.8153 19.8822L12.7816 19.8485C11.7042 18.7668 10.7438 17.2748 10.0045 15.5337C9.88608 15.2551 9.56438 15.1253 9.28574 15.2435C9.00711 15.3618 8.87716 15.6836 8.99549 15.9622C9.78907 17.8307 10.8298 19.4421 12.0071 20.6243L12.041 20.658C14.5697 23.1768 18.4516 24.5432 21.2413 24.9822C21.5914 25.0372 21.9285 25.0646 22.2518 25.0646C23.4543 25.0646 24.4611 24.6858 25.1996 23.9475C25.7407 23.4063 26.1163 22.7264 26.2855 21.9814C26.3021 21.909 26.3037 21.8339 26.2901 21.7607Z" fill="#2B2A28"/>
<path d="M18.6692 9.93872C18.3664 9.93872 18.1211 10.1841 18.1211 10.4868C18.1211 10.7896 18.3664 11.0349 18.6692 11.0349C19.9788 11.0349 21.0442 12.1003 21.0442 13.4099C21.0442 13.7086 21.2937 13.958 21.5923 13.958C21.891 13.958 22.1404 13.7086 22.1404 13.4099C22.1404 11.4959 20.5832 9.93872 18.6692 9.93872Z" fill="#2B2A28"/>
<path d="M18.6689 7.6001C18.454 7.6001 18.237 7.61199 18.0241 7.63544C17.7233 7.66866 17.5063 7.9395 17.5395 8.24035C17.5727 8.54113 17.8433 8.75735 18.1444 8.72502C18.3175 8.70588 18.4939 8.69617 18.6688 8.69617C21.2679 8.69617 23.3824 10.8107 23.3824 13.4097C23.3824 13.5847 23.3727 13.7611 23.3535 13.9342C23.3204 14.2351 23.5374 14.506 23.8382 14.5392C24.1351 14.5712 24.4103 14.352 24.4432 14.0545C24.4666 13.8417 24.4785 13.6246 24.4785 13.4097C24.4786 10.2063 21.8724 7.6001 18.6689 7.6001Z" fill="#2B2A28"/>
<path d="M18.6688 5.26172C18.4607 5.26172 18.2502 5.26972 18.0428 5.28537C17.741 5.30827 17.5148 5.57146 17.5377 5.87333C17.5607 6.17521 17.8226 6.40086 18.1257 6.37837C18.3055 6.3647 18.4883 6.35786 18.6689 6.35786C22.5574 6.35786 25.7209 9.5214 25.7209 13.4099C25.7209 13.9601 25.6574 14.5077 25.5322 15.0377C25.4644 15.3248 25.6441 15.621 25.9294 15.6945C26.2226 15.7701 26.5294 15.5842 26.5989 15.2898C26.7436 14.6773 26.817 14.0449 26.817 13.4099C26.817 8.91703 23.1617 5.26172 18.6688 5.26172Z" fill="#2B2A28"/>
</g>
<defs>
<clipPath id="clip0_71_2604">
<rect width="35" height="35" fill="white"/>
</clipPath>
</defs>
</svg>
