<svg width="32" height="32" viewBox="0 0 32 32" fill="none" xmlns="http://www.w3.org/2000/svg">
<g clip-path="url(#clip0_71_2594)">
<path d="M26.9296 4.62041C23.9501 1.64091 19.9886 0 15.775 0C11.5613 0 7.59991 1.64091 4.62041 4.62041C1.64091 7.59991 0 11.5613 0 15.775C0 18.9535 0.93738 22.0065 2.71367 24.6227L0.0399305 30.8614C-0.135258 31.2701 0.303176 31.6941 0.706363 31.502L6.67393 28.6603C9.34533 30.5519 12.4855 31.55 15.775 31.55C19.9886 31.55 23.9501 29.9092 26.9296 26.9296C29.9092 23.9501 31.55 19.9886 31.55 15.775C31.55 11.5613 29.9092 7.59991 26.9296 4.62041ZM15.775 30.562C12.5982 30.562 9.57037 29.5692 7.01864 27.6907C6.87346 27.5838 6.67615 27.5651 6.51341 27.6426L1.46387 30.0471L3.72943 24.761C3.79697 24.6033 3.77799 24.422 3.67915 24.2819C1.91857 21.7831 0.987971 18.8415 0.987971 15.775C0.987971 7.62142 7.62142 0.987971 15.775 0.987971C23.9286 0.987971 30.562 7.62142 30.562 15.775C30.562 23.9286 23.9286 30.562 15.775 30.562Z" fill="#2B2A28"/>
<path d="M24.4667 5.91979C24.2623 5.73917 23.9501 5.75877 23.7695 5.96329C23.589 6.16781 23.6085 6.47998 23.8129 6.66053C26.4277 8.9683 27.9275 12.2904 27.9275 15.7751C27.9275 22.476 22.4759 27.9275 15.7751 27.9275C9.07423 27.9275 3.62274 22.476 3.62274 15.7751C3.62274 9.07423 9.07423 3.62274 15.7751 3.62274C17.9117 3.62274 20.0127 4.18484 21.8509 5.24824C22.0871 5.38491 22.3893 5.30413 22.5259 5.06794C22.6625 4.83174 22.5819 4.52961 22.3458 4.39294C20.3572 3.24278 18.0851 2.63477 15.7751 2.63477C8.52944 2.63477 2.63477 8.52944 2.63477 15.7751C2.63477 23.0207 8.52944 28.9154 15.7751 28.9154C23.0207 28.9154 28.9154 23.0207 28.9154 15.7751C28.9154 12.0071 27.2939 8.41501 24.4667 5.91979Z" fill="#2B2A28"/>
<path d="M24.1642 21.131L23.6904 18.5647C23.6537 18.3659 23.4996 18.2096 23.3015 18.1699L19.5756 17.4248C19.4136 17.3926 19.2462 17.4432 19.1294 17.56L17.5996 19.0899C15.0211 17.9389 13.5963 16.5111 12.3413 13.8222L13.8665 12.2971C13.9832 12.1803 14.0339 12.0129 14.0015 11.8509L13.2564 8.12488C13.2168 7.92671 13.0604 7.77265 12.8617 7.73593L10.2953 7.26212C10.2294 7.24992 10.1616 7.25134 10.0962 7.26619C9.42468 7.41882 8.81186 7.75731 8.32425 8.24498C7.47986 9.08937 7.15733 10.3231 7.39168 11.8127C7.60519 13.1702 8.03586 14.6466 8.60426 15.97C8.71197 16.2208 9.00251 16.3368 9.25313 16.229C9.5038 16.1213 9.61971 15.8308 9.51206 15.5801C8.97515 14.3302 8.56876 12.9376 8.36763 11.6591C8.18184 10.4778 8.40226 9.56416 9.02285 8.94358C9.35554 8.61082 9.76791 8.3734 10.2205 8.25299L12.3533 8.64675L12.9811 11.7854L11.4004 13.3661C11.2556 13.5108 11.2151 13.7298 11.2986 13.9168C12.7356 17.1349 14.4214 18.8193 17.5185 20.1318C17.704 20.2102 17.9182 20.1685 18.0606 20.0262L19.6412 18.4455L22.7798 19.0732L23.1736 21.2061C23.0532 21.6585 22.8157 22.0709 22.4831 22.4037C21.8624 23.0243 20.9486 23.2447 19.7675 23.0589C17.4061 22.6874 14.1306 21.541 12.0194 19.4382L11.9891 19.4078C11.4157 18.8322 10.8819 18.134 10.4024 17.3324C10.2624 17.0983 9.95906 17.022 9.72484 17.1621C9.49068 17.3021 9.41445 17.6055 9.55452 17.8396C10.0753 18.7102 10.6588 19.4724 11.2909 20.1071L11.3214 20.1375C13.6007 22.4078 17.0995 23.6394 19.6139 24.0348C20.6164 24.1926 21.6935 24.1186 22.5769 23.5787C22.7965 23.4446 22.9996 23.2842 23.1815 23.1023C23.6693 22.6145 24.0077 22.0018 24.1603 21.3302C24.175 21.2647 24.1764 21.1969 24.1642 21.131Z" fill="#2B2A28"/>
</g>
<defs>
<clipPath id="clip0_71_2594">
<rect width="31.55" height="31.55" fill="white"/>
</clipPath>
</defs>
</svg>
